<?xml version="1.0" standalone="no"?><!DOCTYPE svg PUBLIC "-//W3C//DTD SVG 1.1//EN" "http://www.w3.org/Graphics/SVG/1.1/DTD/svg11.dtd"><svg t="1721531943860" class="icon" viewBox="0 0 1024 1024" version="1.1" xmlns="http://www.w3.org/2000/svg" p-id="1730" xmlns:xlink="http://www.w3.org/1999/xlink" width="200" height="200"><path d="M125.159226 288.016516c0.776258 1.383226 1.49471 2.770581 2.324645 4.149678L270.108903 530.580645l121.979871-211.270193 135.667613-241.903484-5.041548-5.041549c-2.877935-0.053677-5.764129-0.107355-8.66271-0.107354-164.029935 0-307.918452 86.201806-388.892903 215.758451z" fill="#96F5FF" p-id="1731"></path><path d="M270.108903 547.096774a16.516129 16.516129 0 0 1-14.174968-8.035097L113.308903 300.643097a93.501935 93.501935 0 0 1-1.866322-3.294968l-0.689549-1.251097a16.528516 16.528516 0 0 1 0.396387-16.838193C198.631226 139.301161 349.245935 55.741935 514.056258 55.741935c3.001806 0 5.991226 0.053677 8.972387 0.107355a16.516129 16.516129 0 0 1 11.371355 4.839226l5.041548 5.041549a16.507871 16.507871 0 0 1 2.721033 19.75329L406.494968 327.390968 284.411871 538.83871a16.507871 16.507871 0 0 1-14.174968 8.258064h-0.128zM144.499613 288.437677l125.357419 209.548388 107.928774-186.933678 124.577033-222.125419c-145.478194 3.75329-277.896258 77.543226-357.863226 199.510709z" fill="#6E6E96" p-id="1732"></path><path d="M920.860903 319.310452c-72.654452-139.594323-215.011097-237.084903-380.956903-246.313291l-12.147613 4.409807-135.667613 241.903484h528.772129z" fill="#BFFFCE" p-id="1733"></path><path d="M920.860903 335.826581H392.088774a16.516129 16.516129 0 0 1-14.406193-24.596646l135.667613-241.903483a16.503742 16.503742 0 0 1 8.770064-7.444646l12.147613-4.409806a16.247742 16.247742 0 0 1 6.552774-0.966194c166.350452 9.253161 317.584516 107.028645 394.690065 255.178323a16.512 16.512 0 0 1-14.649807 24.142452z m-500.570838-33.032258h472.373677c-74.442323-123.321806-206.088258-203.970065-350.327742-213.107613l-3.175226 1.152-118.870709 211.955613z" fill="#6E6E96" p-id="1734"></path><path d="M636.040258 319.310452l121.975742 211.270193 143.566452 244.806194h4.120774c44.837161-70.821161 70.812903-154.772645 70.812903-244.806194 0-76.523355-18.778839-148.64929-51.943226-212.067097l-3.707871 0.796904h-284.824774z" fill="#FEFF73" p-id="1735"></path><path d="M905.703226 791.902968h-4.120774a16.512 16.512 0 0 1-14.245162-8.163097l-143.566451-244.806194-122.033549-211.365161a16.507871 16.507871 0 0 1 14.302968-24.774193h283.069936l1.994322-0.42942a16.516129 16.516129 0 0 1 18.105807 8.497549c35.208258 67.332129 53.821935 143.310452 53.821935 219.718193 0 90.112-25.377032 177.816774-73.377032 253.642323a16.512 16.512 0 0 1-13.952 7.68zM664.646194 335.826581l107.672774 186.496 131.427097 224.107354c36.872258-65.725935 56.253935-139.86271 56.253935-215.84929 0-67.468387-15.587097-134.565161-45.163355-194.754064h-250.190451z" fill="#6E6E96" p-id="1736"></path><path d="M901.582452 775.386839l-143.566452-244.806194-121.975742 211.270194-147.604645 246.069677c9.839484 0.627613 19.757419 0.98271 29.757935 0.98271 160.829935 0 302.286452-82.853161 384.082581-208.189936l-0.693677-5.326451z" fill="#FFCC5E" p-id="1737"></path><path d="M518.193548 1005.419355c-9.884903 0-20.248774-0.34271-30.810838-1.015742a16.524387 16.524387 0 0 1-13.109678-24.980645l147.604645-246.069678 121.839484-211.030709a16.516129 16.516129 0 0 1 28.548129-0.094968l143.566452 244.806193c1.118968 1.911742 1.845677 4.029935 2.13471 6.222452l0.693677 5.326452a16.532645 16.532645 0 0 1-2.547613 11.160774C827.970065 924.791742 679.217548 1005.419355 518.193548 1005.419355z m-1.180903-33.032258h1.180903c147.208258 0 283.400258-72.431484 365.902452-194.163613l-125.968516-214.800516-107.784258 186.690064-133.330581 222.274065z" fill="#6E6E96" p-id="1738"></path><path d="M636.040258 741.850839H111.393032c72.072258 138.496 212.781419 235.536516 377.042581 246.069677l147.604645-246.069677z" fill="#FF9EAF" p-id="1739"></path><path d="M488.439742 1004.436645c-0.350968 0-0.706065-0.012387-1.061161-0.033032-164.616258-10.557935-314.301935-108.238452-390.635355-254.926452a16.524387 16.524387 0 0 1 14.649806-24.142451h524.647226a16.524387 16.524387 0 0 1 14.162581 25.009548l-147.608774 246.069677a16.499613 16.499613 0 0 1-14.154323 8.02271z m-348.84129-246.069677c72.571871 120.163097 199.890581 200.080516 339.918451 212.314838l127.36-212.314838H139.598452z" fill="#6E6E96" p-id="1740"></path><path d="M127.479742 292.166194h-4.913548C80.173419 361.628903 55.741935 443.251613 55.741935 530.580645c0 76.20129 18.617806 148.046452 51.522065 211.270194h284.824774L127.479742 292.166194z" fill="#EABDFF" p-id="1741"></path><path d="M392.088774 758.366968H107.264a16.516129 16.516129 0 0 1-14.649806-8.889807C57.68671 682.372129 39.225806 606.67871 39.225806 530.580645c0-87.378581 23.944258-172.795871 69.243871-247.019355a16.520258 16.520258 0 0 1 14.100646-7.911225h4.913548a16.516129 16.516129 0 0 1 14.232774 8.138322l264.609032 449.688774a16.516129 16.516129 0 0 1-14.236903 24.889807z m-274.675613-33.032258h245.797162L125.159226 320.788645C90.487742 384.974452 72.258065 457.030194 72.258065 530.580645c0 68.471742 15.186581 133.937548 45.155096 194.754065z" fill="#6E6E96" p-id="1742"></path><path d="M767.669677 161.498839C867.233032 240.536774 931.096774 362.611613 931.096774 499.612903c0 238.302968-193.180903 431.483871-431.483871 431.483871-216.171355 0-395.206194-158.967742-426.595097-366.37729C86.428903 801.23871 282.446452 988.903226 522.322581 988.903226c248.563613 0 450.064516-201.500903 450.064516-450.064516 0-158.051097-81.482323-297.050839-204.71742-377.339871z" fill="#6E6E96" opacity=".15" p-id="1743"></path><path d="M115.092645 300.424258L307.612903 692.992H99.389935l7.874065 48.858839h284.824774z" fill="#6E6E96" opacity=".15" p-id="1744"></path><path d="M453.615484 928.644129l159.545806-186.79329-90.264774 188.62658z" fill="#6E6E96" opacity=".15" p-id="1745"></path><path d="M662.709677 332.387097l237.852904 326.907871-23.060646 48.72258z" fill="#6E6E96" opacity=".15" p-id="1746"></path><path d="M418.105806 272.920774h448.656517l24.955871 46.389678H392.088774z" fill="#6E6E96" opacity=".15" p-id="1747"></path><path d="M244.302452 483.786323l236.110451-410.297807 42.306065-1.123097-258.799484 465.230452z" fill="#6E6E96" opacity=".15" p-id="1748"></path><path d="M739.662452 562.374194l96.264258 207.52929 23.46529-32.057807-101.376-207.265032z" fill="#6E6E96" opacity=".15" p-id="1749"></path></svg>