<?xml version="1.0" standalone="no"?><!DOCTYPE svg PUBLIC "-//W3C//DTD SVG 1.1//EN" "http://www.w3.org/Graphics/SVG/1.1/DTD/svg11.dtd"><svg t="1710142807444" class="icon" viewBox="0 0 1024 1024" version="1.1" xmlns="http://www.w3.org/2000/svg" p-id="6321" xmlns:xlink="http://www.w3.org/1999/xlink" width="200" height="200"><path d="M818.176 890.88H207.872C133.12 890.88 72.704 830.464 72.704 754.688V412.672C72.704 337.92 133.12 276.48 207.872 276.48h610.304c74.752 0 136.192 60.416 136.192 136.192v342.016c0 75.776-60.416 136.192-136.192 136.192z" fill="#FFFFFF" p-id="6322"></path><path d="M818.176 901.12H207.872C126.976 901.12 61.44 835.584 61.44 754.688V412.672C61.44 331.776 126.976 266.24 207.872 266.24h610.304c80.896 0 146.432 65.536 146.432 146.432v342.016c0 80.896-65.536 146.432-146.432 146.432zM207.872 286.72C138.24 286.72 81.92 343.04 81.92 412.672v342.016C81.92 824.32 138.24 880.64 207.872 880.64h610.304c69.632 0 125.952-56.32 125.952-125.952V412.672c0-69.632-56.32-125.952-125.952-125.952H207.872z" fill="#1C1C1C" p-id="6323"></path><path d="M61.44 453.632h881.664v259.072H61.44z" fill="#FFDA44" p-id="6324"></path><path d="M953.344 723.968H51.2V443.392h902.144v280.576zM71.68 703.488h861.184V463.872H71.68v239.616z" fill="#1C1C1C" p-id="6325"></path><path d="M293.439167 774.188432a259.072 259.072 0 1 0 366.376741-366.38953 259.072 259.072 0 1 0-366.376741 366.38953Z" fill="#FFFFFF" p-id="6326"></path><path d="M476.16 860.16C327.68 860.16 206.848 739.328 206.848 590.848S327.68 320.512 476.16 320.512s269.312 120.832 269.312 269.312S625.664 860.16 476.16 860.16z m0-519.168c-137.216 0-248.832 111.616-248.832 248.832C227.328 728.064 338.944 839.68 476.16 839.68 614.4 839.68 726.016 728.064 726.016 590.848c0-138.24-111.616-249.856-249.856-249.856z" fill="#1C1C1C" p-id="6327"></path><path d="M450.26864 755.578366a166.912 166.912 0 1 0 53.481451-329.51206 166.912 166.912 0 1 0-53.481451 329.51206Z" fill="#B7BAFF" p-id="6328"></path><path d="M476.16 766.976c-97.28 0-177.152-79.872-177.152-177.152S378.88 412.672 476.16 412.672s177.152 79.872 177.152 177.152c0 98.304-78.848 177.152-177.152 177.152z m0-332.8c-86.016 0-156.672 70.656-156.672 156.672S390.144 747.52 476.16 747.52s156.672-70.656 156.672-156.672c0-87.04-69.632-156.672-156.672-156.672z" fill="#1C1C1C" p-id="6329"></path><path d="M358.4 580.608c-5.12 0-9.216-3.072-10.24-8.192-4.096-22.528 1.024-44.032 13.312-62.464 12.288-18.432 31.744-30.72 54.272-34.816 5.12-1.024 11.264 3.072 12.288 8.192 1.024 5.12-3.072 11.264-8.192 12.288-16.384 3.072-30.72 12.288-40.96 25.6-9.216 14.336-13.312 30.72-10.24 47.104 1.024 5.12-3.072 11.264-8.192 12.288H358.4z" fill="#1C1C1C" p-id="6330"></path><path d="M865.28 379.904h-112.64c-6.144 0-10.24-4.096-10.24-10.24s4.096-10.24 10.24-10.24h112.64c6.144 0 10.24 4.096 10.24 10.24s-4.096 10.24-10.24 10.24z" fill="#1C1C1C" p-id="6331"></path><path d="M226.304 274.432H174.08c-9.216 0-17.408-7.168-17.408-17.408v-26.624c0-9.216 7.168-17.408 17.408-17.408h52.224c9.216 0 17.408 7.168 17.408 17.408v26.624c-1.024 10.24-8.192 17.408-17.408 17.408z" fill="#C1FDF2" p-id="6332"></path><path d="M226.304 284.672H174.08c-15.36 0-27.648-12.288-27.648-27.648v-26.624c0-15.36 12.288-27.648 27.648-27.648h52.224c15.36 0 27.648 12.288 27.648 27.648v26.624c-1.024 15.36-13.312 27.648-27.648 27.648zM174.08 224.256c-4.096 0-7.168 3.072-7.168 7.168v26.624c0 4.096 3.072 7.168 7.168 7.168h52.224c4.096 0 7.168-3.072 7.168-7.168v-26.624c0-4.096-3.072-7.168-7.168-7.168H174.08z" fill="#1C1C1C" p-id="6333"></path><path d="M699.392 274.432H327.68v-13.312C327.68 201.728 375.808 153.6 435.2 153.6h155.648c59.392 0 108.544 48.128 108.544 108.544v12.288z" fill="#C1FDF2" p-id="6334"></path><path d="M709.632 284.672H317.44v-23.552C317.44 196.608 370.688 143.36 435.2 143.36h155.648c65.536 0 118.784 53.248 118.784 118.784v22.528z m-371.712-20.48h351.232v-3.072c0-54.272-44.032-98.304-98.304-98.304H435.2c-54.272 0-98.304 44.032-98.304 98.304v3.072z" fill="#1C1C1C" p-id="6335"></path></svg>