<?xml version="1.0" standalone="no"?><!DOCTYPE svg PUBLIC "-//W3C//DTD SVG 1.1//EN" "http://www.w3.org/Graphics/SVG/1.1/DTD/svg11.dtd"><svg t="1721532435954" class="icon" viewBox="0 0 1024 1024" version="1.1" xmlns="http://www.w3.org/2000/svg" p-id="5847" xmlns:xlink="http://www.w3.org/1999/xlink" width="200" height="200"><path d="M94.779844 90.169628H962.11671V957.506494H94.779844z" fill="#FFFFFF" p-id="5848"></path><path d="M209.534338 300.976208h285.093125v88.658008H209.534338z" fill="#6E6E96" p-id="5849"></path><path d="M307.74968 202.756433h88.658008v285.093125h-88.658008z" fill="#6E6E96" p-id="5850"></path><path d="M94.779844 957.506494H962.11671V90.169628L94.779844 957.506494z m720.780745-162.625386h-285.093126v-100.387463h285.093126v100.387463z" fill="#E1E1F2" p-id="5851"></path><path d="M953.778424 962.72845H86.441558a17.731602 17.731602 0 0 1-17.731601-17.731602V77.659983a17.731602 17.731602 0 0 1 17.731601-17.731602h867.336866a17.731602 17.731602 0 0 1 17.731602 17.731602v867.336865a17.731602 17.731602 0 0 1-17.731602 17.731602z m-849.605264-35.463203h831.873663V95.391584H104.17316v831.873663z" fill="#6E6E96" p-id="5852"></path><path d="M530.458597 694.493645h285.088693v100.387463h-285.088693zM86.441558 962.72845a17.731602 17.731602 0 0 1-12.540675-30.267844L930.820433 75.545489a17.731602 17.731602 0 1 1 25.072485 25.076918L98.982234 957.533091a17.696139 17.696139 0 0 1-12.540676 5.195359z" fill="#6E6E96" p-id="5853"></path></svg>