<?xml version="1.0" standalone="no"?><!DOCTYPE svg PUBLIC "-//W3C//DTD SVG 1.1//EN" "http://www.w3.org/Graphics/SVG/1.1/DTD/svg11.dtd"><svg t="1721532416351" class="icon" viewBox="0 0 1024 1024" version="1.1" xmlns="http://www.w3.org/2000/svg" p-id="2946" xmlns:xlink="http://www.w3.org/1999/xlink" width="200" height="200"><path d="M518.295082 996.721311c-263.805902 0-478.42623-214.624525-478.42623-478.426229 0-263.805902 214.620328-478.42623 478.42623-478.42623 263.801705 0 478.42623 214.620328 478.426229 478.42623a16.786885 16.786885 0 0 1-33.57377 0c0-245.294164-199.562492-444.852459-444.852459-444.852459-245.294164 0-444.852459 199.558295-444.852459 444.852459 0 245.289967 199.558295 444.852459 444.852459 444.852459a16.786885 16.786885 0 0 1 0 33.57377z" fill="#6E6E96" p-id="2947"></path><path d="M979.015344 994.757246a16.786885 16.786885 0 0 1-15.368393-10.025967l-134.404197-305.143607-145.521311 305.592656a16.786885 16.786885 0 0 1-30.312918-14.432525l161.271606-338.671213c2.824393-5.92577 8.951607-9.50977 15.401967-9.568524a16.786885 16.786885 0 0 1 15.116591 10.02177l149.172459 338.671213a16.778492 16.778492 0 0 1-15.355804 23.556197z" fill="#6E6E96" p-id="2948"></path><path d="M919.149115 875.016393h-185.302033a16.786885 16.786885 0 0 1 0-33.57377h185.302033a16.786885 16.786885 0 0 1 0 33.57377z" fill="#6E6E96" p-id="2949"></path><path d="M779.817967 137.866492L598.171279 410.019672h233.442623L326.635016 919.614951l205.660328-391.394623H303.318033l196.326819-471.157508s159.945443-6.001311 280.173115 80.803672z" fill="#FFEF9E" p-id="2950"></path><path d="M548.205115 66.110951l-63.345312-9.048131-181.54177 458.567344h41.958819l178.440394-395.268197c0.029377 0 118.158689-11.389902 230.530098 55.824787l25.583213-38.320262c-0.01259 0-108.321574-71.755541-231.625442-71.755541z" fill="#966E6E" opacity=".14" p-id="2951"></path><path d="M326.63082 936.401836a16.778492 16.778492 0 0 1-14.856394-24.592787l192.734426-366.797639h-201.190819a16.786885 16.786885 0 0 1-15.494295-23.241443l196.326819-471.161705a16.820459 16.820459 0 0 1 14.864787-10.315541s2.58518-0.100721 7.352656-0.100721c39.138623 0 175.234098 6.060066 283.278689 84.068721a16.786885 16.786885 0 0 1 4.13377 22.930886L629.558557 393.232787h202.055345a16.782689 16.782689 0 1 1 11.918688 28.600656L338.557902 931.428721a16.744918 16.744918 0 0 1-11.927082 4.973115z m1.867541-424.968393h203.796983a16.786885 16.786885 0 0 1 14.86059 24.596983l-153.474098 292.079213 397.664525-401.298885h-193.175082a16.786885 16.786885 0 0 1-13.962492-26.103606l172.439082-258.354361c-95.446033-61.889049-212.878689-68.08341-245.789377-68.549246L328.498361 511.433443z" fill="#6E6E96" p-id="2952"></path></svg>