<?xml version="1.0" standalone="no"?><!DOCTYPE svg PUBLIC "-//W3C//DTD SVG 1.1//EN" "http://www.w3.org/Graphics/SVG/1.1/DTD/svg11.dtd"><svg t="1721532328961" class="icon" viewBox="0 0 1024 1024" version="1.1" xmlns="http://www.w3.org/2000/svg" p-id="1480" xmlns:xlink="http://www.w3.org/1999/xlink" width="200" height="200"><path d="M85.333333 149.333333a21.333333 21.333333 0 0 1 21.333334-21.333333h810.666666a21.333333 21.333333 0 0 1 21.333334 21.333333v725.333334a21.333333 21.333333 0 0 1-21.333334 21.333333H106.666667a21.333333 21.333333 0 0 1-21.333334-21.333333V149.333333z m42.666667 21.333334v682.666666h768V170.666667H128z" fill="#ffffff" p-id="1481"></path><path d="M917.333333 853.333333H106.666667v-42.666666h810.666666v42.666666zM917.333333 213.333333H106.666667V170.666667h810.666666v42.666666z" fill="#ffffff" p-id="1482"></path><path d="M433.813333 378.602667l-192-170.666667 28.373334-31.872 192 170.666667-28.373334 31.872zM305.728 890.517333l-213.333333-192 28.544-31.701333 213.333333 192-28.544 31.701333zM433.450667 506.261333l-320-298.666666 29.12-31.189334 320 298.666667-29.12 31.189333zM390.826667 847.637333l-298.666667-277.333333 29.013333-31.274667 298.666667 277.333334-29.013333 31.274666zM433.408 634.24l-341.333333-320 29.184-31.146667 341.333333 320-29.184 31.146667zM433.408 762.24l-341.333333-320 29.184-31.146667 341.333333 320-29.184 31.146667zM903.146667 378.602667l-192-170.666667 28.373333-31.872 192 170.666667-28.373333 31.872zM775.061333 890.517333l-213.333333-192 28.544-31.701333 213.333333 192-28.544 31.701333zM902.784 506.261333l-320-298.666666 29.12-31.189334 320 298.666667-29.12 31.189333zM860.16 847.637333l-298.666667-277.333333 29.013334-31.274667 298.666666 277.333334-29.013333 31.274666zM902.741333 634.24l-341.333333-320 29.184-31.146667 341.333333 320-29.184 31.146667zM902.741333 762.24l-341.333333-320 29.184-31.146667 341.333333 320-29.184 31.146667z" fill="#ffffff" p-id="1483"></path><path d="M469.333333 192v618.666667h-42.666666V192h42.666666zM597.333333 192v618.666667h-42.666666V192h42.666666z" fill="#ffffff" p-id="1484"></path></svg>