<svg xmlns="http://www.w3.org/2000/svg" viewBox="0 0 1000 1000"><defs><style>.b3a6d98d-79a2-4d14-b700-08c0bbd6c0ea{fill:#05214f;}.f0834998-8008-40f0-9800-665467ccb2cc{fill:#febb02;}.e6837e13-be51-4fb1-8e76-634c86e642d1{fill:none;}</style></defs><g id="a7a12d5d-3f00-4d8e-ad77-5179d69e58a8" data-name="蓝色"><path class="b3a6d98d-79a2-4d14-b700-08c0bbd6c0ea" d="M497,963.5A467.62,467.62,0,0,1,315,65.24,467.62,467.62,0,0,1,679,926.76,464.51,464.51,0,0,1,497,963.5Z"/><path class="b3a6d98d-79a2-4d14-b700-08c0bbd6c0ea" d="M497,33A463.13,463.13,0,0,1,677.22,922.62,463.12,463.12,0,0,1,316.78,69.38,460.13,460.13,0,0,1,497,33m0-9C236.32,24,25,235.32,25,496S236.32,968,497,968,969,756.68,969,496,757.68,24,497,24Z"/></g><g id="b2002e51-3a78-4646-bd98-6507f5b907a8" data-name="黄色圈"><path class="f0834998-8008-40f0-9800-665467ccb2cc" d="M497,53A443.12,443.12,0,0,1,669.43,904.19,443.12,443.12,0,0,1,324.57,87.81,440.16,440.16,0,0,1,497,53m0-11C246.26,42,43,245.26,43,496S246.26,950,497,950,951,746.74,951,496,747.74,42,497,42Z"/><path class="f0834998-8008-40f0-9800-665467ccb2cc" d="M500,206.22a294.83,294.83,0,1,1-115.13,23.24A293.93,293.93,0,0,1,500,206.22M500,195c-169.55,0-307,137.45-307,307S330.45,809,500,809,807,671.55,807,502,669.55,195,500,195Z"/></g><g id="b6cfbdf0-fe4e-493d-a437-0746676d5eb7" data-name="SIT书本"><path class="f0834998-8008-40f0-9800-665467ccb2cc" d="M380.31,332.55c13.67,0,27.33-.06,41,0,8.65.05,17.31.05,25.93.88,8.28.8,16.14,3.2,22.82,8.18,4.82,3.6,8.69,8.25,10.44,14.31,1.41,4.85,4.83,8.68,7,13.17.58,1.2,1.86,1.74,3.11,2.31a26.73,26.73,0,0,0,13.34,2c13.58-1.07,27.24-1,40.74-3,3.47-.5,6.91-1.26,10.37-1.85A181.66,181.66,0,0,1,581.7,366c10.84-.24,21.67-.93,32.5-1.42,14.38-.65,28.76-.67,43,1.58,5.86.93,10.29,4.68,14,9.26,2,2.53,3.4,5.45,5.26,8.09,4.79,6.8,11.35,9.27,19.31,9h.44c7.74-.45,12,3.52,13.58,10.92.44,2,.78,4,1,6.05a59.52,59.52,0,0,0,3.6,15.36,49.06,49.06,0,0,1,3.24,14.07,50.73,50.73,0,0,0,3.61,14.87c2.31,5.63,2.67,11.66,3.55,17.57a33.59,33.59,0,0,0,2.17,8.5c2.5,5.73,3.35,11.76,4.1,17.86A50.63,50.63,0,0,0,734.28,510a43.41,43.41,0,0,1,2.93,12.35,56.69,56.69,0,0,0,3.92,16.56c2.6,6.46,2.65,13.45,4,20.18a10.77,10.77,0,0,0,.42,2.15c3.48,8,4.85,16.5,6,25.08.73,5.52,3.45,10.53,4.81,15.92a22.41,22.41,0,0,1,.49,8.29c-.58,4.63-4.25,6.81-8,8.48-1.74.77-3.46,1.5-5.13,2.44-2,1.15-2.39,2.81-1.86,4.86a13.58,13.58,0,0,0,.83,2.5c2.6,5.41.14,9.8-4.68,12.54a44.52,44.52,0,0,1-9,4.43c-2.81.86-4.34,2.66-3.62,5.24,2,7.36-2.64,10.45-7.86,13.22a17.61,17.61,0,0,1-6.2,2.14c-10.34,1.08-20.69,2.36-31.11.57-2.72-.46-5.6,0-8.28-.88a49.83,49.83,0,0,1-16.93-9c-6.68-5.58-13.91-8.21-22.62-7.34-7.87.78-15.79.88-23.69,1.28-19.92,1-39.85,1.31-59.78,1.84-12.18.31-24.36,0-36.53.47s-24.08.24-36.11,0c-5.64-.12-11.07-1-16-4a9.05,9.05,0,0,0-2.42-1c-6.65-1.63-11.16-6.18-15.33-11.17-1.78-2.13-3.28-4.5-5.11-6.58-5.42-6.18-11.89-10-20.53-10-16,.05-32,1.06-47.94,1.48-13.8.36-27.59.27-41.38.24a64.21,64.21,0,0,1-14.36-1.67,12.82,12.82,0,0,1-3.73-1.25c-7.21-4.2-13.38-9.47-17.63-16.76a10.13,10.13,0,0,1-1-2c-2.78-9.07-6.31-17.92-7-27.55a35.3,35.3,0,0,0-3.07-11.4,34.92,34.92,0,0,1-2.78-10.59,68.06,68.06,0,0,0-4.66-19.56c-1.61-4-1.93-8.25-2.49-12.45A42.16,42.16,0,0,0,268.2,508a49.43,49.43,0,0,1-3.91-15.68,39.82,39.82,0,0,0-2.71-11.92,68.86,68.86,0,0,1-4.19-17.88,45.77,45.77,0,0,0-3.45-12.65,34.22,34.22,0,0,1-2.47-9.78,66.48,66.48,0,0,0-4.5-19.07,41.09,41.09,0,0,1-2.6-11.94A40.73,40.73,0,0,0,241,395.59a16.26,16.26,0,0,1-1.48-5.51c-.4-4.88,1.49-7.73,6.19-9.24.55-.18,1.15-.25,1.7-.44,3.66-1.32,5.21-4,4.56-7.91-.29-1.72-.93-3.34-1.15-5.11-.66-5.27,1.19-8.42,6.19-10.07a21,21,0,0,1,6.1-.64c6.3-.24,8.21-2.32,8.14-8.73,0-.73,0-1.47-.08-2.2-.63-5.92,2.52-10.06,8.38-10.51,11.25-.86,22.5-1.53,33.79-1.89C335.69,332.64,358,332.55,380.31,332.55ZM353.83,390c-32.32-.18-62.52,1.62-92.74,2.87a9.69,9.69,0,0,0-1.31.13c-1.65.3-3.27.86-3.8,2.59s-1.9,3.35-.95,5.94c2.3,6.3,5,12.56,5.93,19.28s1.87,13.34,4.51,19.64c2.13,5.07,2.17,10.59,3.27,15.89,2,9.59,5.62,18.74,6.94,28.58,1.21,9.09,5.76,17.53,6.3,26.89a21.66,21.66,0,0,0,1.52,6.4,86.69,86.69,0,0,1,5,21.33,36.46,36.46,0,0,0,2.36,8.9,61.07,61.07,0,0,1,3.78,15.78,51,51,0,0,0,3.2,13.52,32.54,32.54,0,0,1,2.38,9.7c.76,9.72,6.16,16.38,14.8,20.62,3.3,1.62,6.85,1.66,10.34,1.78,24.24.85,48.46,0,72.68-1,7.19-.29,14.39-.5,21.59-.44,11.39.11,20.27,5.23,27.1,14,2.06,2.64,4.45,5.19,6,8,2.53,4.43,6.42,5.94,10.7,6.88,10.47,2.31,21.09,4,31.84,3.53,9.52-.46,19.06-.53,28.58-1.08,15.82-.92,31.67-1.33,47.51-1.88,10.27-.36,20.54-.35,30.82-.75,12.91-.51,25.85-.26,38.78-.38,4.56,0,8.5,1.49,12.39,3.85,3.67,2.23,6.39,5.6,10.08,7.67a55.54,55.54,0,0,0,29,7.51c4.53-.12,9.14-.06,13.51-1.53,5.65-1.9,7.37-5.58,5-11a57.53,57.53,0,0,1-3.88-15.3,57.57,57.57,0,0,0-3.35-13.63A42.21,42.21,0,0,1,701,603.17a77.88,77.88,0,0,0-4.74-20.06,37.46,37.46,0,0,1-2.16-10.3,59.74,59.74,0,0,0-3.54-15.4,51.55,51.55,0,0,1-2.88-11.93c-.63-5.25-1.41-10.51-3.37-15.44A49.06,49.06,0,0,1,681,516.85a68.48,68.48,0,0,0-3.88-16.62,53.71,53.71,0,0,1-2.77-12c-.59-4.81-1.26-9.62-3.06-14.16a62.52,62.52,0,0,1-3.79-16.21c-.63-5.83-1.85-6.86-7.55-8a25.36,25.36,0,0,0-3.88-.77c-6.87-.24-11.57-4.64-16.34-8.67-1.85-1.56-4-3.2-5-5.54-1.41-3.34-3.93-5.79-6.11-8.54a9.91,9.91,0,0,0-7.62-3.78c-1.75-.12-3.52-.15-5.28-.23-13.51-.61-27-.21-40.54.08a239.25,239.25,0,0,0-34.66,2.77,296.43,296.43,0,0,1-36.29,3.8,170.05,170.05,0,0,0-21.45,2.21c-8.61,1.48-16.94,1.69-25.17-2.37-6.22-3.07-11.7-6.88-14.71-13.06-2.5-5.12-5.26-10.15-7.41-15.44a7.62,7.62,0,0,0-4.67-4.28c-8.54-3.48-17.51-4.75-26.62-5.3C386.74,389.75,369.26,389.86,353.83,390Zm-69.9-21.25c-3.68,0-7.35,0-11,0a9.88,9.88,0,0,0-7.21,2.76c-1.15,1.15-1.59,2.22-.26,3.76,2.34,2.72,4.89,4.2,8.72,4.09,22-.68,44-1.26,66.08-1.62,26.45-.42,52.88,0,79.3,1.44a37.56,37.56,0,0,1,21.34,8.39c6.1,4.78,8.78,12.07,11.58,18.92,3.5,8.56,7.78,12.32,17,12.36,13.53.05,27-1.29,40.39-2.92,7.85-.95,15.62-2.63,23.53-3.18,9.37-.65,18.75-1.3,28.13-1.87,6.3-.39,12.63-.45,18.91-1a178,178,0,0,1,48.23,2.05,11,11,0,0,1,4.12,1.46,35.23,35.23,0,0,1,11.51,12.49,21.54,21.54,0,0,0,16.38,11.71,25.88,25.88,0,0,0,6.15.29c6.3-.51,9.34,2.69,10.84,8.72,1.9,7.68,4.19,15.3,5.62,23.05,2.36,12.85,5.91,25.41,8.8,38.12,3.59,15.85,7.11,31.73,11.2,47.48,2.42,9.35,4.49,18.83,6.49,28.27,2.93,13.92,7.22,27.52,9.42,41.59a8,8,0,0,0,2.13,4.72c1.23,1.22,2.63,2,4.36,1.23a4.17,4.17,0,0,0,2.78-3.64,21.42,21.42,0,0,0-.51-4.79c-1.69-11.49-6.24-22.3-7.91-33.79-1.08-7.43-4.16-14.41-5.32-21.77-2-12.63-6.45-24.69-8.39-37.31-1-6.84-3.67-13.28-5.05-20-1.24-6-2-12.19-3.84-18.07a111.58,111.58,0,0,1-4-16.67c-1.33-8.73-4.75-16.95-6.14-25.65a73.33,73.33,0,0,0-3.93-15.76c-1.34-3.36-3.56-5.71-7.1-6.55a72.34,72.34,0,0,1-11.64-4c-1.74-.75-3.57-1.27-5.06-2.57-4.86-4.27-9.57-8.62-12.12-14.8a6.72,6.72,0,0,0-3.26-3.45,37.08,37.08,0,0,0-14.63-4.4,282.39,282.39,0,0,0-48,1.06c-15.31,1.79-30.64,3.07-46,4.25-7.74.6-15.49,1.24-23.18,2.5-9.69,1.59-19.4,3-29.29,3.06-8.92,0-15.63-4.27-21.77-10-5.44-5.06-7.57-12.14-10.59-18.57-3.18-6.75-7.53-11-15.26-11.2-2.93-.08-5.86-.42-8.78-.65-8.92-.69-17.83-1.83-26.75-2-12.31-.2-24.58-1.06-36.94-.57-13.63.54-27.29.69-40.93,1.28C309.43,367.59,296.7,368.55,283.93,368.71ZM386,344.2c-18.51-.12-37-.2-55.52.63-12.61.56-25.21,1.2-37.81,1.8a8.16,8.16,0,0,0-4.57,1.38,4.09,4.09,0,0,0-.45,6.73,7.19,7.19,0,0,0,5.73,1.7c3.81-.26,7.61-.62,11.42-.77,15.84-.61,31.68-1.43,47.52-1.68,28.48-.44,56.95-.79,85.29,3.34,9.68,1.41,16.74,6.05,21.76,14a77.15,77.15,0,0,1,6.49,13.41c2.56,6.63,7.95,9.4,14.07,11.42,4.15,1.37,8.45.91,12.66.45,8.15-.89,16.27-2.16,24.43-3q26.49-2.78,53-5.27a439,439,0,0,1,59.8-2.09,45,45,0,0,1,16.94,4.18A23.59,23.59,0,0,1,658.72,402c2.28,4.63,5.64,8.64,10.84,10.41a36.07,36.07,0,0,0,11.6,2.28c6.76,0,10.27,3.66,11.8,9.18.95,3.39,1.88,6.78,2.67,10.21,3.66,16,7,32.1,11,48,3.26,12.95,6,26,9.23,39,3.06,12.07,5.71,24.25,8.52,36.39,2.3,10,4.47,20,6.89,30,1.44,6,2.23,12.12,4.69,17.83,1.2,2.79,2.72,3.76,5,3.26,1.83-.4,2.92-2.19,2.9-4.86,0-.73-.24-1.45-.29-2.18-.17-2.67-1.25-5.12-1.84-7.69-3.4-14.84-6.7-29.71-10.14-44.54-2.75-11.84-5.69-23.64-8.47-35.48C718,492,712.7,470.16,707.92,448.24c-2.65-12.15-6.64-24-7.91-36.48a2.54,2.54,0,0,0-.7-1.44c-3.21-4-7.11-6.68-12.44-7.19-2.4-.23-5-.46-7.12-1.79-5.23-3.28-10.07-7.12-13.49-12.31-1.62-2.45-3.72-4.55-5.17-7-2.27-3.8-5.62-4.89-9.49-5.42a68.69,68.69,0,0,0-7-.67,480.58,480.58,0,0,0-50.21,1.12c-5.42.43-10.86.25-16.26,1-8.58,1.13-17.18,2.07-25.79,3-10.51,1.12-21,2.21-31.55,3.16-7.16.65-14.3,2-21.51,1.4s-14-2.55-19.38-8.17c-4.65-4.91-7.63-10.72-9.87-16.93-2-5.56-5.12-10.38-10.83-11.79-10.66-2.63-21.52-4.53-32.6-4.5C413.07,344.24,399.55,344.2,386,344.2ZM751.31,609.06c0-2.38-.42-3.64-1.51-3.71-1.77-.11-1.88,1.54-2.52,2.61a2.83,2.83,0,0,0-.17.4c-2.1,4.84-6.81,6.17-11,3.13a15.6,15.6,0,0,0-2.19-1.44c-2-.95-3-.49-2.78,1.6a36.69,36.69,0,0,0,1.77,9.85c.83,2.21,1.82,2.29,3.33.23,2.54-3.45,5.62-5.77,10-6.35C749.1,615,751.27,611.92,751.31,609.06ZM648.66,396.19c-1.81-.11-2.28.72-1.42,2.25,2.14,3.78,4.7,7.33,7.14,10.87,2.65,3.85,6,7.61,11,9,.89.24,1.72.68,2.37-.2,1-1.36-.39-1.71-1.11-2.29-4-3.2-8-6.32-10.22-11.15a40.4,40.4,0,0,0-2.23-4.28A8.34,8.34,0,0,0,648.66,396.19ZM715.94,653c.42,1.54-.67,3.66,1.59,3.71,1.78,0,2.68-1.52,2.88-3.29.06-.57,0-1.16,0-1.75a14.16,14.16,0,0,1,1.83-6.23c.6-1.17,1.41-2.22,2.05-3.36a2.11,2.11,0,0,0-.59-3.08c-2.51-1.73-6.58-.05-6.69,3A54.24,54.24,0,0,1,715.94,653Z"/><path class="f0834998-8008-40f0-9800-665467ccb2cc" d="M751.31,609.06c0,2.86-2.21,5.94-5,6.32-4.42.58-7.5,2.9-10,6.35-1.51,2.06-2.5,2-3.33-.23a36.69,36.69,0,0,1-1.77-9.85c-.18-2.09.81-2.55,2.78-1.6a15.6,15.6,0,0,1,2.19,1.44c4.18,3,8.89,1.71,11-3.13a2.83,2.83,0,0,1,.17-.4c.64-1.07.75-2.72,2.52-2.61C750.89,605.42,751.35,606.68,751.31,609.06Z"/><path class="f0834998-8008-40f0-9800-665467ccb2cc" d="M648.66,396.19a8.34,8.34,0,0,1,5.5,4.2,40.4,40.4,0,0,1,2.23,4.28c2.21,4.83,6.25,7.95,10.22,11.15.72.58,2.12.93,1.11,2.29-.65.88-1.48.44-2.37.2-5-1.39-8.32-5.15-11-9-2.44-3.54-5-7.09-7.14-10.87C646.38,396.91,646.85,396.08,648.66,396.19Z"/><path class="f0834998-8008-40f0-9800-665467ccb2cc" d="M715.94,653a54.24,54.24,0,0,0,1.11-11c.11-3.06,4.18-4.74,6.69-3a2.11,2.11,0,0,1,.59,3.08c-.64,1.14-1.45,2.19-2.05,3.36a14.16,14.16,0,0,0-1.83,6.23c0,.59,0,1.18,0,1.75-.2,1.77-1.1,3.34-2.88,3.29C715.27,656.64,716.36,654.52,715.94,653Z"/><path class="f0834998-8008-40f0-9800-665467ccb2cc" d="M437.66,571.08a4.14,4.14,0,0,1,1.1-.83,5,5,0,0,1,.31-.54,7.68,7.68,0,0,1,.11-.82c-.06-.67-.18-1.35-.18-1.89,0-2-.09-3.43-.09-3.43l-3.36-10.32-4.82-15.76L428.59,530,425,514l-3.32-12.47-.92-7.82s-1.57-3.13-3.56-3.38a58.16,58.16,0,0,0-8.26-.93c-7.64.15-15.28.05-22.92,0s-15-.25-22.47.1c-4.39.2-10.3-4.47-10.3-4.47l-3.83-7.66-1.1-9.14L346,462.67l-1.13-8.13s4-4.62,7.44-4.58a42.27,42.27,0,0,0,7.47-.25c8-1.33,16.16-1,24.14-.35,6.9.56,13.76.39,20.64.55,3.51.08,4.19-1.24,3.31-4.78-1.09-4.45-4-8.11-5.17-12.54-.43-1.63-2.11-2.32-3.92-2.28a23.57,23.57,0,0,1-4.83-.09c-9-1.68-18.1-.46-27.15-1.48-11.08-1.26-22.23.79-33.37.67-6.9-.08-13.75.44-20.61.92-3.06.22-4.38,2.06-3.57,5.05.57,2.11.91,4.45,2.31,6.13l16.9,60.92c.34,2.29-.76,5.2,1.67,7s5.1.46,7.66.47q23.79,0,47.59,0c4.83,0,9.81,6.59,9.81,6.59l4.1,8.23.93,2.44s1.89,10,1.82,15.19c0,3.52-1.72,6-5,6.75a38.12,38.12,0,0,1-7.34,1.2c-5.12.07-10.27.55-15.33.6-9.26.08-18.28,2.57-27.55,2.07-3.49-.19-4.56,1.23-4.73,4.83-.24,5.05,1.95,9.38,4,13.76,1.45,3.1,3.59,4.84,7.24,4.44,10.66-1.16,21.38-.86,32.08-1a8.23,8.23,0,0,0,1.31-.08c6.5-1.08,13.11-.92,19.64-1.61,3.63-.39,7.26-.79,10.9-1,5.46-.38,11-1.33,16.58-.75a41.52,41.52,0,0,1,2.24-.27l.35,0A5.54,5.54,0,0,1,437.66,571.08Z"/><path class="e6837e13-be51-4fb1-8e76-634c86e642d1" d="M633.07,604.38c-.59-2.82-1.14-5.66-3.32-8a10.34,10.34,0,0,1-2.61-7.74c.23-3.57-1-6.94-1.09-10.47a7.39,7.39,0,0,0-1.41-4.09c-3.54-4.48-4.45-9.62-4.68-15.14-.15-3.75-.7-7.47-3.06-10.78a18.36,18.36,0,0,1-3.19-10.31c-.19-5.33-.57-10.84-4.08-15.41-1.37-1.78-1.74-3.84-2.13-6.07-.93-5.32-1.2-10.71-2.29-16-1.32-6.39,1.74-9.66,8.35-9.86,1.47,0,2.93,0,4.4,0,3.82,0,7.64.09,11.46,0,2.3-.06,3.73-.76,4.34-2.11-.69-2.8-1.36-5.59-1.91-8.4-3.24-4.77-10.49-9.93-14.93-10-7.64,0-15.28,0-22.91,0v0c-4.7,0-9.41.07-14.11,0a123.43,123.43,0,0,0-33.41,4,56.36,56.36,0,0,1-7.33,1.24c-1.47.18-3.12,0-3.72,1.69a4,4,0,0,0,.87,4.5c3,3,3.71,6.81,4.14,10.78.36,3.37,1.39,4.22,4.74,4.44,5.45.35,10.81-.65,16.17-1.26,6.85-.78,11.83,1.06,13.27,6.81A8.07,8.07,0,0,0,576,505c3.14,4.17,4.15,8.89,4.18,14,0,4.57.87,9,3.75,12.83a11.14,11.14,0,0,1,2.25,6.12c.13,3.38.76,6.69.9,10a15.2,15.2,0,0,0,2.77,8.18c1.16,1.7,2.37,3.46,2.54,5.54.28,3.35,1.17,6.6,1.05,10a17,17,0,0,0,3.12,10.36,18.07,18.07,0,0,1,3,9.9c.22,4.21.29,8.54,1.79,12.51,1.08,2.84,2.69,5.49,3.61,8.44a3.63,3.63,0,0,0,3.62,2.71c7.2,0,14.4.1,21.6,0,2.83-.06,4.34-2,3.8-4.73C633.6,608.7,633.5,606.5,633.07,604.38Z"/><path class="f0834998-8008-40f0-9800-665467ccb2cc" d="M633.07,604.38,631,595l-2-8-3-8.82-1.41-4.09L620,559l-3.06-10.78-3.19-10.31-4.08-15.41-2.13-6.07s-1.2-10.71-2.29-16c-1.32-6.39,1.74-9.66,8.35-9.86,1.47,0,2.93,0,4.4,0,3.82,0,7.64.09,11.46,0,2.3-.06,3.73-.76,4.34-2.11-1-4-1.92-7.9-2.5-11.92a8.84,8.84,0,0,1-.64-1.31l-.33-.88a8.19,8.19,0,0,0-.59-1c-.06-.09-.11-.18-.16-.27a15.65,15.65,0,0,0-7.39-3.1c-1.44.06-2.9.09-4.35,0h0q-.43.06-.87.15c-7.64,0-15.28,0-22.91,0v0c-4.7,0-9.41.07-14.11,0a123.43,123.43,0,0,0-33.41,4,56.36,56.36,0,0,1-7.33,1.24c-1.47.18-3.12,0-3.72,1.69s.87,4.5.87,4.5l4.14,10.78s1.39,4.22,4.74,4.44c5.45.35,10.81-.65,16.17-1.26,6.85-.78,11.83,1.06,13.27,6.81A14.25,14.25,0,0,0,576,505l4.18,14,3.75,12.83,2.25,6.12,18.82,75a3.63,3.63,0,0,0,3.62,2.71c7.2,0,14.4.1,21.6,0,2.83-.06,4.34-2,3.8-4.73C633.6,608.7,633.07,604.38,633.07,604.38Z"/><polyline class="f0834998-8008-40f0-9800-665467ccb2cc" points="502.44 505.16 504.96 513.5 508.86 529.63 510.45 535.97"/><path class="f0834998-8008-40f0-9800-665467ccb2cc" d="M525.78,590.5a10.37,10.37,0,0,1,1.44,6.32c-.22,2.23-1.43,3.31-3.62,3.71-5.47,1-11.05.87-16.57,1.54-3.07.37-6.39-.49-9.43-1.62-3.25-1.2-4.43-7.12-4.43-7.12l-3.75-13L486,564.59l-2.2-7.54-4.08-15.57-3-10.48-3.08-11.37-3.53-13.49-3.55-14.83s-.95-6.17-2.4-8.82c-2.68-4.87-3.14-10.31-4.52-15.51-.76-2.84,1-4.63,4.21-4.73,3.82-.12,7.64,0,11.46,0v-.05c3.67,0,7.34-.07,11,0,4.44.11,6.7,2.09,7.48,6.48"/></g></svg>