<?xml version="1.0" standalone="no"?><!DOCTYPE svg PUBLIC "-//W3C//DTD SVG 1.1//EN" "http://www.w3.org/Graphics/SVG/1.1/DTD/svg11.dtd"><svg t="1700151327670" class="icon" viewBox="0 0 1024 1024" version="1.1" xmlns="http://www.w3.org/2000/svg" p-id="5981" xmlns:xlink="http://www.w3.org/1999/xlink" width="200" height="200"><path d="M632.0128 51.2L857.6 273.7408H632.0128V51.2z m10.368 700.2496c13.6704-22.9632 20.7616-46.5152 20.7616-73.5872 0-14.3488-2.048-27.2256-6.0288-40.8448l-99.2512 19.5584 84.5056 94.8736z m-126.6176 69.1712l2.6368 0.0256c40.9856 0 77.056-16.0896 105.1648-44.7616l-66.7392-74.9312-41.0624 119.6672z m-123.8784-73.664c20.8896 35.84 52.1216 59.6864 93.0432 69.76l32.4096-94.4768-125.44 24.7168z m2.5344-142.6816c-13.6704 22.9632-20.7744 46.528-20.7744 73.6 0 14.3744 2.0608 27.2 6.08 40.832l99.2-19.5456-84.5056-94.8864z m126.6176-69.1584l-2.6368-0.0256c-40.9984 0-77.0432 16.0896-105.1648 44.7488l66.7392 74.944 41.0624-119.6672z m23.7952 137.536l-17.792-19.968-26.4448 5.1968-8.64 25.1904 17.792 19.9936 26.4448-5.2224 8.64-25.1904z m100.1856-63.9104c-20.8128-35.8016-51.648-59.648-93.1328-69.76l-32.4352 94.5152 125.568-24.7552z m48.6144 69.12c0 95.5136-78.4 172.864-175.232 172.864-96.6144 0-175.232-77.5552-175.232-172.864 0-95.3216 78.6176-172.8512 175.232-172.8512 96.832 0 175.232 77.3376 175.232 172.8512zM350.8992 176.2816h-15.1808l7.4496-43.6736 7.7312 43.6736zM252.3264 130.88h5.2608c4.0576-0.0256 7.0144 0.9344 8.832 2.8544 1.8432 1.92 2.7392 4.9536 2.7136 9.1136 0.0128 3.712-0.9216 6.6816-2.8032 8.8832-1.8688 2.2016-4.736 3.328-8.5888 3.3664h-5.4144V130.88z m-27.136 796.5696h586.4064V428.288H225.1776v499.1616zM602.4704 51.2v251.6992H857.6V972.8H179.2V51.2h423.2832zM414.1824 182.7456l-8.4736-71.1424h-26.2784l17.8176 102.8224h29.7728l9.0496-69.12 9.344 69.12h29.7856l17.8048-102.8224h-26.2656l-7.296 71.1424-10.9568-71.1424h-24.5248l-9.7792 71.1424z m-113.3568 31.68h28.9024l2.7776-18.0096h21.6064l2.7776 18.0096h28.9024l-25.408-102.8224h-34.1504l-25.408 102.8224z m-75.648 0h27.136V173.2352h7.168c3.264-0.128 5.568 0.8704 6.9376 2.9568 1.3568 2.0992 2.0224 6.016 1.984 11.7248v6.9248c-0.0512 2.368 0.0512 5.4912 0.3328 9.3696 0.2688 3.8656 1.0368 7.2704 2.304 10.2144H299.904v-1.408a5.6704 5.6704 0 0 1-1.92-1.4976 15.1936 15.1936 0 0 1-1.152-1.6896c-0.6144-1.1392-0.9984-3.1104-1.1264-5.888a137.216 137.216 0 0 1-0.1792-8.384v-8.7808c0.128-6.8736-1.088-12.288-3.6096-16.2176-2.5088-3.9424-7.0016-6.2208-13.4528-6.8224 6.1696-1.28 10.688-3.8912 13.5424-8.1024 2.8672-4.224 4.288-9.792 4.2496-16.6784 0.1152-8.064-2.0608-14.6048-6.528-19.6096-4.4544-5.0176-11.8144-7.6032-22.0672-7.744h-42.496v102.8224z" fill="#C60027" p-id="5982"></path></svg>